<svg width="512" height="512" viewBox="0 0 512 512" fill="none" xmlns="http://www.w3.org/2000/svg">
<path d="M137.141 15.5958C138.313 15.589 139.485 15.5821 140.693 15.5751C144.545 15.5568 148.397 15.5606 152.25 15.5663C154.267 15.5638 156.283 15.5595 158.3 15.555C164.639 15.5409 170.978 15.5424 177.317 15.5539C183.807 15.5653 190.297 15.5513 196.788 15.5245C202.399 15.5021 208.01 15.4957 213.622 15.5015C216.956 15.5049 220.289 15.501 223.623 15.4853C259.202 15.3415 259.202 15.3415 274.562 23.6874C275.212 24.0277 275.862 24.368 276.532 24.7187C285.176 29.4658 291.35 35.7949 295 44.9999C295 45.9899 295 46.9799 295 47.9999C295.655 47.991 296.31 47.9821 296.985 47.973C303.798 47.8846 310.611 47.8242 317.424 47.7802C319.968 47.76 322.511 47.7327 325.054 47.6981C328.708 47.6497 332.361 47.6269 336.016 47.6093C337.724 47.5783 337.724 47.5783 339.466 47.5467C341.057 47.5463 341.057 47.5463 342.681 47.5458C343.613 47.5369 344.546 47.528 345.507 47.5189C348.802 48.1546 349.977 49.3665 352 51.9999C352.387 54.9616 352.538 57.5419 352.496 60.4999C352.497 61.3314 352.499 62.163 352.5 63.0197C352.499 64.7815 352.487 66.5434 352.466 68.3051C352.438 70.9631 352.446 73.6191 352.459 76.2772C352.437 96.2544 347.375 111.894 333.609 126.707C330.959 129.036 328.545 130.197 325.375 131.687C322.706 133.149 322.706 133.149 321 136C320.168 140.044 320.032 144.004 320 148.125C319.988 149.2 319.975 150.274 319.962 151.382C320.013 156.883 320.013 156.883 322.294 161.705C324.064 163.186 324.064 163.186 327 165C328.793 167.141 328.793 167.141 330.187 169.25C330.655 169.936 331.123 170.621 331.605 171.328C336.548 180.798 336.364 189.686 336.187 200.062C336.172 201.611 336.159 203.16 336.146 204.709C336.114 208.473 336.062 212.236 336 216C336.8 215.996 337.601 215.993 338.425 215.989C357.887 215.9 377.35 215.834 396.812 215.793C406.224 215.772 415.636 215.744 425.048 215.698C433.25 215.658 441.452 215.632 449.654 215.624C453.999 215.618 458.342 215.606 462.686 215.577C466.774 215.55 470.861 215.541 474.949 215.547C476.45 215.546 477.951 215.538 479.453 215.523C481.5 215.503 483.549 215.51 485.597 215.519C486.743 215.515 487.89 215.512 489.071 215.508C492 216 492 216 494.368 217.565C496.555 220.829 496.556 223.641 496.508 227.439C496.517 228.567 496.517 228.567 496.527 229.718C496.543 232.239 496.53 234.76 496.518 237.281C496.523 239.088 496.53 240.895 496.539 242.702C496.557 247.611 496.55 252.52 496.537 257.429C496.527 262.562 496.537 267.696 496.543 272.83C496.55 281.452 496.54 290.073 496.521 298.695C496.5 308.668 496.507 318.64 496.529 328.613C496.547 337.17 496.549 345.727 496.539 354.284C496.533 359.397 496.532 364.51 496.545 369.623C496.557 374.43 496.549 379.236 496.526 384.043C496.52 385.808 496.522 387.574 496.531 389.34C496.542 391.747 496.528 394.153 496.508 396.56C496.521 397.613 496.521 397.613 496.535 398.686C496.482 401.953 496.177 403.753 494.255 406.435C491.697 408.21 490.499 408.495 487.419 408.481C486.505 408.486 485.59 408.492 484.648 408.498C483.155 408.476 483.155 408.476 481.632 408.454C480.578 408.455 479.524 408.455 478.438 408.456C474.953 408.453 471.469 408.422 467.984 408.391C465.569 408.383 463.153 408.377 460.737 408.373C454.378 408.358 448.02 408.319 441.661 408.275C435.172 408.234 428.684 408.215 422.195 408.195C409.463 408.152 396.732 408.082 384 408C384 421.2 384 434.4 384 448C389.561 447.93 389.561 447.93 395.234 447.859C398.822 447.828 402.409 447.804 405.997 447.78C408.492 447.76 410.987 447.733 413.481 447.698C417.066 447.65 420.65 447.627 424.234 447.609C425.351 447.589 426.468 447.568 427.619 447.547C428.659 447.546 429.7 447.546 430.772 447.546C431.687 447.537 432.602 447.528 433.545 447.519C436.818 448.16 437.992 449.38 440 452C440.508 453.973 440.508 453.973 440.518 456.062C440.536 457.244 440.536 457.244 440.556 458.449C440.544 459.712 440.544 459.712 440.531 461C440.535 461.873 440.539 462.745 440.543 463.644C440.546 465.487 440.538 467.329 440.521 469.172C440.5 471.99 440.521 474.806 440.547 477.625C440.544 479.417 440.539 481.208 440.531 483C440.539 483.842 440.547 484.683 440.556 485.551C440.537 486.732 440.537 486.732 440.518 487.937C440.514 488.627 440.511 489.317 440.508 490.027C439.746 492.986 438.377 494.107 436 496C432.892 496.501 432.892 496.501 429.147 496.503C428.455 496.509 427.762 496.515 427.049 496.521C424.718 496.536 422.388 496.522 420.057 496.508C418.373 496.512 416.69 496.519 415.006 496.527C410.371 496.544 405.736 496.535 401.101 496.523C396.105 496.514 391.11 496.528 386.115 496.539C376.326 496.557 366.536 496.553 356.747 496.541C348.793 496.532 340.84 496.531 332.886 496.535C331.755 496.536 330.625 496.536 329.46 496.537C327.163 496.538 324.866 496.54 322.57 496.541C301.018 496.552 279.466 496.539 257.914 496.518C239.409 496.5 220.904 496.503 202.398 496.521C180.925 496.543 159.452 496.551 137.979 496.539C135.691 496.538 133.402 496.536 131.114 496.535C129.425 496.534 129.425 496.534 127.702 496.533C119.755 496.53 111.808 496.536 103.861 496.545C94.1798 496.556 84.4993 496.553 74.8186 496.532C69.8764 496.521 64.9343 496.517 59.9921 496.531C55.4719 496.542 50.9522 496.536 46.432 496.515C44.7928 496.51 43.1535 496.512 41.5143 496.522C39.2933 496.534 37.0738 496.522 34.8528 496.503C33.6171 496.503 32.3814 496.502 31.1082 496.501C27.4134 495.905 26.2331 494.948 23.9999 492C23.491 489.628 23.491 489.628 23.4785 486.948C23.4644 485.929 23.4502 484.91 23.4356 483.86C23.443 482.192 23.443 482.192 23.4506 480.489C23.4404 479.313 23.4302 478.137 23.4196 476.926C23.3966 473.702 23.3917 470.479 23.3968 467.255C23.3989 464.559 23.3891 461.864 23.3796 459.168C23.3574 452.801 23.3565 446.435 23.3686 440.069C23.3806 433.517 23.3561 426.965 23.3135 420.414C23.2781 414.778 23.2662 409.142 23.2727 403.506C23.2763 400.145 23.2712 396.784 23.2433 393.423C23.2185 389.667 23.2322 385.913 23.2553 382.157C23.24 381.055 23.2247 379.953 23.209 378.818C23.3281 370.044 26.238 364.871 32.2812 358.652C45.7543 348.239 70.4407 332 87.9999 332C87.6699 309.56 87.3399 287.12 86.9999 264C83.3699 262.68 79.7399 261.36 75.9999 260C65.6764 253.072 59.2724 245.069 55.9999 233C55.488 229.111 55.437 225.294 55.4687 221.375C55.4649 220.307 55.461 219.239 55.4571 218.138C55.4544 215.896 55.4616 213.654 55.4785 211.412C55.4999 208.008 55.4786 204.607 55.4531 201.203C55.4557 199.01 55.4608 196.818 55.4687 194.625C55.4606 193.623 55.4525 192.62 55.4442 191.587C55.5907 180.374 59.1969 171.108 66.9999 163C71.073 159.34 74.5972 156.209 79.9999 155C79.9833 153.283 79.9833 153.283 79.9663 151.532C79.8645 140.691 79.7898 129.85 79.7409 119.009C79.7149 113.437 79.6797 107.865 79.6227 102.293C79.568 96.9044 79.5384 91.5166 79.5256 86.1282C79.5164 84.0835 79.4985 82.0388 79.4713 79.9943C79.2551 63.0578 80.9763 49.6189 91.9999 35.9999C92.7631 34.948 93.5262 33.8962 94.3124 32.8124C105.878 20.7091 120.74 15.5279 137.141 15.5958ZM296 144C296 146.64 296 149.28 296 152C298.64 152 301.28 152 304 152C304 149.03 304 146.06 304 143C300.956 142.918 298.928 143.024 296 144ZM104 264C104 284.46 104 304.92 104 326C113.992 323.502 123.966 320.99 133.914 318.335C135.923 317.8 137.932 317.268 139.941 316.736C141.854 316.227 141.854 316.227 143.805 315.707C145.521 315.25 145.521 315.25 147.273 314.784C149.935 314.108 149.935 314.108 152 313C152 306.07 152 299.14 152 292C150.06 290.998 148.12 289.997 146.121 288.965C144.22 287.972 142.32 286.974 140.422 285.976C139.114 285.291 137.804 284.612 136.491 283.937C127.847 279.488 119.935 275.382 115.125 266.562C114.424 265.717 113.722 264.871 113 264C110.03 264 107.06 264 104 264Z" fill="black"/>
<path d="M240 232C319.2 232 398.4 232 480 232C480 284.8 480 337.6 480 392C448.32 392 416.64 392 384 392C383.951 382.552 383.902 373.105 383.852 363.371C383.816 357.387 383.78 351.404 383.742 345.42C383.682 335.921 383.623 326.423 383.578 316.925C383.545 310.007 383.505 303.089 383.457 296.171C383.432 292.509 383.41 288.848 383.397 285.186C383.381 281.094 383.351 277.003 383.319 272.912C383.317 271.703 383.315 270.494 383.312 269.248C383.22 260.014 382.498 253.701 375.973 246.801C370.17 241.504 364.7 240.311 356.895 240.625C349.427 241.593 345.229 245.306 340.445 250.902C337.588 255.049 336.75 258.693 336.722 263.688C336.71 264.823 336.699 265.957 336.688 267.126C336.686 268.361 336.683 269.596 336.681 270.868C336.671 272.176 336.661 273.484 336.651 274.831C336.623 278.409 336.608 281.987 336.595 285.565C336.58 289.308 336.553 293.05 336.527 296.792C336.48 303.875 336.444 310.958 336.411 318.041C336.365 327.615 336.304 337.189 336.244 346.763C336.15 361.842 336.077 376.921 336 392C304.32 392 272.64 392 240 392C240 339.2 240 286.4 240 232Z" fill="#373737"/>
<path d="M165.878 143.76C167.387 143.755 167.387 143.755 168.925 143.751C170.027 143.758 171.129 143.766 172.264 143.773C173.425 143.773 174.587 143.772 175.783 143.772C179.63 143.774 183.477 143.789 187.324 143.805C189.988 143.808 192.652 143.811 195.315 143.813C201.616 143.82 207.916 143.836 214.217 143.856C222.093 143.881 229.969 143.892 237.846 143.902C251.897 143.922 265.948 143.962 280 144C280 167.76 280 191.52 280 216C254.75 216.25 254.75 216.25 246.792 216.298C244.71 216.327 242.628 216.358 240.547 216.391C238.926 216.392 238.926 216.392 237.272 216.394C235.719 216.424 235.719 216.424 234.136 216.454C233.239 216.463 232.341 216.472 231.417 216.481C228.117 217.19 226.968 218.274 225 221C224.384 224.06 224.384 224.06 224.454 227.513C224.444 228.157 224.433 228.801 224.423 229.465C224.393 231.586 224.392 233.707 224.391 235.828C224.376 237.302 224.359 238.776 224.34 240.25C224.297 244.123 224.277 247.996 224.262 251.87C224.242 255.825 224.2 259.78 224.16 263.734C224.085 271.49 224.035 279.245 224 287C219.481 287.982 215.127 288.178 210.516 288.203C209.293 288.212 209.293 288.212 208.046 288.22C206.324 288.23 204.603 288.236 202.882 288.24C200.272 288.25 197.664 288.281 195.055 288.313C193.375 288.319 191.695 288.324 190.016 288.328C188.862 288.347 188.862 288.347 187.685 288.366C179.383 288.332 172.598 285.558 165.348 281.637C164.763 281.322 164.178 281.008 163.575 280.684C162.351 280.024 161.128 279.361 159.907 278.695C158.073 277.693 156.233 276.702 154.393 275.713C126.593 260.715 126.593 260.715 121.429 245.872C119.264 238.459 119.628 230.918 119.707 223.273C119.713 221.674 119.717 220.074 119.72 218.474C119.731 214.295 119.761 210.116 119.794 205.937C119.825 201.66 119.838 197.383 119.853 193.106C119.885 184.737 119.937 176.369 120 168C120.641 167.687 121.281 167.374 121.941 167.052C127.098 164.508 132.09 161.862 136.996 158.863C137.596 158.498 138.196 158.132 138.815 157.756C140.691 156.612 142.564 155.462 144.437 154.313C145.715 153.533 146.993 152.754 148.271 151.975C161.745 143.751 161.745 143.751 165.878 143.76Z" fill="#FBDFB8"/>
<path d="M152 330C152.017 330.69 152.034 331.379 152.051 332.09C152.616 338.244 153.947 341.677 158.688 345.75C170.798 354.637 183.799 359.359 198.812 359.312C199.842 359.329 200.871 359.345 201.932 359.361C208.036 359.365 213.18 358.675 218.948 356.645C221 356 221 356 224 356C224.008 356.567 224.016 357.135 224.025 357.719C224.111 363.624 224.21 369.529 224.317 375.434C224.356 377.637 224.391 379.841 224.422 382.045C224.468 385.212 224.526 388.38 224.586 391.547C224.597 392.532 224.609 393.518 224.621 394.533C224.641 395.454 224.661 396.375 224.681 397.323C224.694 398.132 224.708 398.94 224.722 399.773C225.032 402.257 225.678 403.882 227 406C229.329 407.165 230.707 407.137 233.303 407.158C234.206 407.168 235.109 407.178 236.039 407.188C237.529 407.197 237.529 407.197 239.049 407.205C240.093 407.215 241.137 407.225 242.213 407.235C245.676 407.267 249.139 407.292 252.602 407.316C254.998 407.337 257.394 407.358 259.79 407.379C266.106 407.435 272.422 407.484 278.738 407.532C285.18 407.582 291.621 407.638 298.062 407.693C310.708 407.801 323.354 407.902 336 408C336 421.2 336 434.4 336 448C332.365 448.026 328.73 448.052 324.984 448.078C321.466 448.117 317.948 448.162 314.43 448.208C311.984 448.236 309.538 448.257 307.091 448.271C303.576 448.292 300.062 448.339 296.547 448.391C294.904 448.392 294.904 448.392 293.229 448.394C291.698 448.424 291.698 448.424 290.136 448.454C289.239 448.463 288.341 448.472 287.417 448.481C284.223 449.167 283.012 450.476 281 453C280.361 455.987 280.361 455.987 280.391 459.297C280.345 460.926 280.345 460.926 280.298 462.589C280.282 463.962 280.266 465.335 280.25 466.75C280.167 471.122 280.085 475.495 280 480C266.8 480 253.6 480 240 480C239.75 469.062 239.75 469.062 239.702 465.672C239.377 455.987 236.213 446.799 229 440C215.702 431.7 202.5 432.482 187.312 432.312C186.102 432.299 184.892 432.285 183.645 432.271C157.915 432.11 133.782 436.441 108.889 442.62C107 443 107 443 104 443C104 410 104 377 104 343C127.25 336.025 127.25 336.025 138.125 333.125C139.825 332.665 139.825 332.665 141.559 332.195C149.742 330 149.742 330 152 330Z" fill="#131010"/>
<path d="M88.0002 350C88.0002 382.01 88.0002 414.02 88.0002 447C83.5452 447.495 83.5452 447.495 79.0002 448C79.4952 450.011 79.4952 450.011 80.0002 452.062C80.9225 456.167 81.1787 459.807 81.0002 464C83.3102 463.67 85.6202 463.34 88.0002 463C88.0002 468.61 88.0002 474.22 88.0002 480C72.1602 480 56.3202 480 40.0002 480C39.6794 453.827 39.6794 453.827 39.6096 442.662C39.5618 435.046 39.5053 427.431 39.3967 419.816C39.3097 413.676 39.262 407.536 39.2412 401.395C39.2265 399.054 39.1976 396.712 39.1544 394.371C39.0962 391.088 39.0883 387.808 39.092 384.525C39.0633 383.559 39.0345 382.593 39.0049 381.598C39.0538 377.589 39.1615 375.027 41.7515 371.855C45.1482 368.836 48.7833 366.234 52.8127 364.121C54.0737 363.456 54.0737 363.456 55.3601 362.777C56.2314 362.335 57.1026 361.893 58.0002 361.438C58.9115 360.968 59.8227 360.498 60.7615 360.014C80.5619 350 80.5619 350 88.0002 350Z" fill="#131010"/>
<path d="M169.933 31.823C170.717 31.8164 171.502 31.8098 172.31 31.8031C174.901 31.7834 177.491 31.7717 180.082 31.7617C180.973 31.7576 181.864 31.7535 182.782 31.7493C187.508 31.7285 192.234 31.7142 196.96 31.7048C201.8 31.6938 206.639 31.6595 211.479 31.6196C215.235 31.5933 218.99 31.5851 222.746 31.5815C224.527 31.5767 226.308 31.5652 228.09 31.5465C242.413 31.4053 258.997 32.1146 271 41C272.068 42.1814 273.112 43.3842 274.138 44.6023C274.675 45.2372 275.212 45.8721 275.765 46.5263C276.376 47.2557 276.376 47.2557 277 48C275.791 48.0088 275.791 48.0088 274.557 48.0177C266.895 48.0761 259.232 48.1484 251.57 48.2357C247.632 48.2801 243.695 48.3194 239.757 48.3464C235.944 48.3728 232.132 48.4134 228.319 48.4632C226.878 48.4796 225.436 48.4913 223.994 48.4976C202.488 48.6013 185.307 53.4989 169.336 68.5703C161.612 76.7903 156.007 87.9682 154 99C153.795 100 153.59 101.001 153.379 102.031C153.045 105.53 153.164 108.405 153.492 111.879C154.457 125.469 154.457 125.469 152 132C146.013 138.749 137.285 142.727 129 146C128.67 146 128.34 146 128 146C127.884 135.516 127.795 125.032 127.741 114.547C127.715 109.678 127.68 104.809 127.623 99.9394C127.568 95.232 127.538 90.5251 127.526 85.8174C127.516 84.0298 127.498 82.2422 127.471 80.4548C127.25 65.2849 129.828 53.7263 140.551 42.3554C148.806 34.5731 158.872 31.8635 169.933 31.823Z" fill="#4C2716"/>
<path d="M225.063 63.875C226.515 63.8851 227.968 63.8942 229.42 63.9024C232.947 63.9242 236.473 63.9586 240 64C240.837 90.5229 240.837 90.5229 236 100C235.576 100.862 235.152 101.725 234.715 102.613C227.704 115.484 217.183 122.49 203.567 127.184C196.892 128.733 189.813 128.207 183 128.125C181.543 128.115 180.086 128.106 178.629 128.098C175.086 128.076 171.543 128.041 168 128C167.912 124.396 167.859 120.792 167.813 117.188C167.787 116.183 167.762 115.178 167.736 114.143C167.601 100.122 171.946 88.069 181.563 77.75C194.626 65.3947 208.006 63.6686 225.063 63.875Z" fill="#4C2716"/>
<path d="M162.521 447.839C163.603 447.829 164.684 447.82 165.798 447.81C166.957 447.806 168.115 447.801 169.309 447.797C171.108 447.788 171.108 447.788 172.943 447.78C175.478 447.77 178.012 447.764 180.546 447.76C184.42 447.75 188.293 447.719 192.166 447.688C194.63 447.681 197.094 447.676 199.559 447.672C200.715 447.66 201.871 447.647 203.063 447.635C209.595 447.653 214.634 447.858 219.645 452.535C227.232 462.457 224 461.458 224 480C184.4 480 144.8 480 104 480C104 473.07 104 466.14 104 459C119.138 455.668 134.294 452.491 149.502 449.493C151.11 449.176 152.713 448.839 154.311 448.479C157.101 447.982 159.688 447.859 162.521 447.839Z" fill="#FADEB8"/>
<path d="M339.035 231.564C340.059 231.545 341.084 231.526 342.14 231.506C343.246 231.503 344.352 231.499 345.492 231.496C346.63 231.486 347.768 231.476 348.941 231.466C351.35 231.451 353.759 231.444 356.168 231.444C359.854 231.437 363.537 231.383 367.223 231.326C369.562 231.317 371.902 231.311 374.242 231.308C375.344 231.287 376.447 231.265 377.582 231.243C385.052 231.31 385.052 231.31 387.803 233.312C391.433 237.569 392.125 240.589 392.12 246.011C392.122 247.933 392.122 247.933 392.124 249.895C392.121 251.323 392.117 252.752 392.114 254.18C392.113 255.678 392.113 257.176 392.114 258.674C392.114 262.748 392.108 266.822 392.101 270.896C392.095 275.151 392.095 279.405 392.093 283.66C392.09 291.721 392.082 299.781 392.072 307.842C392.061 317.017 392.055 326.192 392.05 335.368C392.04 354.245 392.022 373.122 392 392C389.36 392 386.72 392 384 392C383.997 391.326 383.993 390.652 383.99 389.958C383.909 373.549 383.817 357.14 383.712 340.731C383.662 332.795 383.616 324.86 383.578 316.924C383.545 310.007 383.505 303.089 383.457 296.171C383.432 292.509 383.41 288.848 383.397 285.186C383.381 281.094 383.351 277.003 383.319 272.912C383.317 271.703 383.315 270.493 383.312 269.248C383.22 260.014 382.498 253.701 375.973 246.801C370.17 241.504 364.7 240.311 356.895 240.625C349.427 241.592 345.229 245.306 340.445 250.902C337.588 255.049 336.75 258.693 336.722 263.688C336.71 264.823 336.699 265.957 336.688 267.126C336.686 268.361 336.683 269.596 336.681 270.868C336.671 272.176 336.661 273.484 336.651 274.831C336.623 278.409 336.608 281.987 336.595 285.565C336.58 289.308 336.553 293.05 336.527 296.792C336.48 303.875 336.444 310.958 336.411 318.041C336.372 326.107 336.323 334.172 336.273 342.237C336.169 358.825 336.08 375.412 336 392C333.36 392 330.72 392 328 392C327.93 372.416 327.877 352.831 327.845 333.247C327.829 324.153 327.808 315.06 327.774 305.967C327.744 298.041 327.724 290.115 327.718 282.188C327.714 277.992 327.705 273.795 327.683 269.599C327.662 265.648 327.656 261.696 327.661 257.745C327.66 256.296 327.654 254.848 327.642 253.399C327.627 251.417 327.633 249.436 327.639 247.454C327.636 246.346 327.634 245.238 327.631 244.096C328.141 239.813 329.817 236.592 332.373 233.152C334.64 231.547 336.27 231.599 339.035 231.564Z" fill="#252525"/>
<path d="M359.133 255.59C360.119 255.762 360.119 255.762 361.125 255.938C361.787 256.029 362.45 256.121 363.133 256.215C365.788 257.331 366.551 258.5 368 261C368.282 263.609 368.392 265.974 368.361 268.58C368.363 269.347 368.366 270.114 368.368 270.905C368.373 273.477 368.357 276.048 368.34 278.62C368.34 280.463 368.34 282.306 368.342 284.149C368.343 289.155 368.325 294.16 368.304 299.166C368.285 304.397 368.284 309.627 368.28 314.857C368.271 324.763 368.246 334.669 368.216 344.575C368.182 355.851 368.166 367.128 368.151 378.405C368.119 401.603 368.066 424.802 368 448C362.72 448 357.44 448 352 448C351.884 423.705 351.795 399.409 351.741 375.114C351.715 363.833 351.68 352.553 351.623 341.272C351.573 331.441 351.541 321.611 351.529 311.78C351.523 306.573 351.508 301.367 351.471 296.16C351.437 291.261 351.427 286.362 351.434 281.463C351.433 279.663 351.423 277.864 351.404 276.065C351.379 273.61 351.385 271.156 351.399 268.701C351.384 267.987 351.369 267.274 351.354 266.54C351.413 262.656 351.918 261.1 354.404 258.044C357 256 357 256 359.133 255.59Z" fill="#373737"/>
<path d="M244 178C248.797 180.398 251.602 183.203 254 188C254.714 192.623 254.121 195.759 252 200C261.24 200 270.48 200 280 200C280 205.28 280 210.56 280 216C278.476 216.009 276.952 216.019 275.382 216.028C269.731 216.068 264.081 216.134 258.43 216.207C255.984 216.236 253.538 216.257 251.092 216.271C247.576 216.292 244.062 216.339 240.547 216.391C238.905 216.392 238.905 216.392 237.229 216.394C236.208 216.414 235.188 216.434 234.136 216.454C233.239 216.463 232.342 216.472 231.417 216.481C228.117 217.189 226.968 218.274 225 221C224.384 224.06 224.384 224.06 224.454 227.513C224.444 228.157 224.434 228.801 224.423 229.465C224.394 231.586 224.392 233.707 224.391 235.828C224.376 237.302 224.359 238.776 224.341 240.25C224.297 244.123 224.277 247.996 224.262 251.87C224.242 255.825 224.2 259.779 224.16 263.734C224.085 271.489 224.035 279.244 224 287C220.326 287.853 216.955 288.108 213.188 288.062C211.724 288.049 211.724 288.049 210.231 288.035C209.495 288.023 208.759 288.012 208 288C207.931 277.395 207.877 266.79 207.845 256.185C207.829 251.26 207.808 246.336 207.774 241.411C207.741 236.659 207.723 231.906 207.716 227.153C207.71 225.34 207.699 223.527 207.683 221.715C207.661 219.175 207.658 216.635 207.66 214.095C207.649 213.346 207.638 212.597 207.627 211.826C207.653 207.378 208.245 204.533 211 201C214.066 199.467 217.268 199.897 220.625 199.937C221.685 199.944 221.685 199.944 222.766 199.951C224.511 199.963 226.255 199.981 228 200C227.678 199.42 227.356 198.84 227.024 198.242C225.479 194.859 225.442 191.613 226 188C229.74 180.521 235.636 176.36 244 178Z" fill="#F4CAA0"/>
<path d="M97.3126 167.875C98.5668 167.893 99.8211 167.911 101.113 167.93C102.542 167.965 102.542 167.965 104 168C104.01 168.914 104.021 169.828 104.031 170.769C104.129 179.391 104.232 188.013 104.339 196.634C104.395 201.067 104.448 205.499 104.497 209.931C104.545 214.211 104.598 218.49 104.653 222.769C104.673 224.4 104.692 226.031 104.709 227.661C104.733 229.95 104.763 232.238 104.795 234.526C104.818 236.478 104.818 236.478 104.842 238.469C104.988 241.731 105.384 244.797 106 248C87.7079 248.799 87.7079 248.799 82.0001 244C75.8475 238.189 72.0438 233.189 71.7096 224.499C71.683 222.762 71.6685 221.026 71.6642 219.289C71.6575 218.362 71.6508 217.435 71.644 216.48C71.6339 214.525 71.6292 212.57 71.6295 210.615C71.6251 207.641 71.5888 204.669 71.5509 201.695C71.545 199.789 71.541 197.883 71.5392 195.977C71.5248 195.096 71.5104 194.216 71.4956 193.309C71.548 186.149 73.4094 180.92 78.1837 175.539C79.2994 174.592 79.2994 174.592 80.4376 173.625C81.1788 172.978 81.92 172.331 82.6837 171.664C87.493 168.209 91.4393 167.765 97.3126 167.875Z" fill="#858585"/>
<path d="M168 301C168.594 301.142 169.187 301.284 169.799 301.431C176.296 302.872 182.399 303.267 189.039 303.195C190.046 303.192 191.053 303.19 192.09 303.187C195.268 303.176 198.446 303.151 201.625 303.125C203.795 303.115 205.966 303.106 208.137 303.098C213.424 303.077 218.712 303.038 224 303C224 314.55 224 326.1 224 338C211.308 344.346 199.595 345.993 185.531 343.348C182.838 342.446 180.521 341.303 178 340C177.13 339.607 176.26 339.214 175.364 338.809C172.3 337.136 170.254 335.686 168 333C166.751 327.472 167.05 322.187 167.375 316.562C167.425 315.053 167.471 313.543 167.512 312.033C167.621 308.352 167.793 304.677 168 301Z" fill="#FADEB7"/>
<path d="M296 464C338.24 464 380.48 464 424 464C424 469.28 424 474.56 424 480C381.76 480 339.52 480 296 480C296 474.72 296 469.44 296 464Z" fill="#262626"/>
<path d="M256 64C266.56 64 277.12 64 288 64C288.6 90.9869 288.6 90.9869 284 100C283.576 100.862 283.152 101.725 282.715 102.613C275.762 115.376 264.662 123.293 250.875 127.438C245.566 128.208 240.354 128.161 235 128C235.352 127.539 235.704 127.077 236.066 126.602C237.126 125.201 238.178 123.794 239.223 122.383C240.374 120.839 241.547 119.312 242.746 117.805C250.274 107.913 254.87 95.4757 255.316 83.043C255.355 82.0403 255.393 81.0377 255.432 80.0046C255.497 78.1152 255.497 78.1152 255.562 76.1875C255.707 72.1656 255.851 68.1438 256 64Z" fill="#65341D"/>
<path d="M304 64C314.56 64 325.12 64 336 64C336.6 90.9869 336.6 90.9869 332 100C331.576 100.862 331.152 101.725 330.715 102.613C323.762 115.376 312.662 123.293 298.875 127.438C293.566 128.208 288.354 128.161 283 128C283.352 127.539 283.704 127.077 284.066 126.602C285.126 125.201 286.178 123.794 287.223 122.383C288.374 120.839 289.547 119.312 290.746 117.805C297.987 108.289 302.905 95.9156 303.316 83.9219C303.355 82.8761 303.393 81.8304 303.432 80.7529C303.497 78.7715 303.497 78.7715 303.562 76.75C303.707 72.5425 303.851 68.335 304 64Z" fill="#4C2716"/>
<path d="M126 34C124.529 37.0619 122.85 39.925 121.063 42.8125C115.406 52.2128 112.711 61.1213 112.681 72.0781C112.671 72.9474 112.661 73.8166 112.651 74.7122C112.62 77.5581 112.603 80.404 112.586 83.25C112.567 85.234 112.548 87.2179 112.527 89.2019C112.476 94.4033 112.437 99.6048 112.399 104.806C112.359 110.122 112.308 115.438 112.258 120.754C112.161 131.169 112.077 141.585 112 152C106.72 152 101.44 152 96.0001 152C95.8868 140.733 95.7952 129.467 95.7411 118.2C95.7151 112.968 95.6799 107.735 95.623 102.503C95.5683 97.4454 95.5387 92.3883 95.5258 87.3305C95.5166 85.409 95.4987 83.4874 95.4715 81.566C95.2747 67.0551 96.7771 55.1752 107 44C112.273 38.6528 118.286 34 126 34Z" fill="#65341D"/>
<path d="M104 173C104.01 173.851 104.021 174.702 104.031 175.579C104.129 183.612 104.232 191.645 104.339 199.679C104.394 203.808 104.448 207.938 104.497 212.067C104.545 216.055 104.598 220.043 104.653 224.03C104.673 225.549 104.692 227.068 104.709 228.587C104.733 230.72 104.763 232.852 104.795 234.985C104.818 236.804 104.818 236.804 104.842 238.659C104.956 242.463 104.956 242.463 106 248C100.72 248 95.4401 248 90.0001 248C90.4951 247.01 90.4951 247.01 91.0001 246C90.4629 244.108 90.4629 244.108 89.594 242.005C87.808 236.907 87.5166 232.286 87.4961 226.918C87.4862 225.983 87.4762 225.047 87.4659 224.083C87.4508 222.116 87.4437 220.149 87.4441 218.181C87.4376 215.205 87.383 212.232 87.3262 209.256C87.2034 195.477 88.9366 186.816 98.0001 176C101.517 173 101.517 173 104 173Z" fill="#606060"/>
<path d="M296 168C306.112 169.264 310.115 171.531 316.52 178.902C319.777 183.518 320.243 187.461 320.195 193.051C320.192 193.71 320.19 194.368 320.187 195.047C320.176 197.136 320.151 199.224 320.125 201.312C320.115 202.735 320.106 204.158 320.098 205.58C320.077 209.054 320.038 212.526 320 216C312.08 216 304.16 216 296 216C296 200.16 296 184.32 296 168Z" fill="#606060"/>
<path d="M296 464C338.24 464 380.48 464 424 464C424 466.64 424 469.28 424 472C381.76 472 339.52 472 296 472C296 469.36 296 466.72 296 464Z" fill="#383838"/>
<path d="M152 330C152.11 330.748 152.219 331.495 152.332 332.266C152.491 333.25 152.649 334.235 152.812 335.25C152.963 336.225 153.114 337.199 153.27 338.203C154.04 341.152 155.126 342.649 157 345C155.589 345.37 155.589 345.37 154.149 345.747C149.786 346.891 145.424 348.038 141.062 349.188C139.895 349.495 139.895 349.495 138.704 349.809C128.66 352.459 118.651 355.175 108.719 358.223C106 359 106 359 104 359C104 353.72 104 348.44 104 343C115.323 339.511 126.686 336.213 138.125 333.125C139.269 332.815 140.413 332.505 141.591 332.185C142.657 331.9 143.722 331.614 144.82 331.32C145.772 331.065 146.723 330.81 147.704 330.547C150 330 150 330 152 330Z" fill="#383333"/>
<path d="M88 350C88 354.95 88 359.9 88 365C85.3374 366.052 85.3374 366.052 82.6211 367.125C62.2854 374.712 62.2854 374.712 43.7461 385.719C42 387 42 387 40 387C39.7817 384.984 39.6278 382.961 39.5 380.938C39.4072 379.812 39.3144 378.687 39.2188 377.527C40.4011 372.189 43.6319 370.046 48 367C51.2492 364.963 54.581 363.172 58 361.438C58.9112 360.968 59.8224 360.498 60.7612 360.014C80.5616 350 80.5616 350 88 350Z" fill="#383333"/>
<path d="M244 178C248.797 180.398 251.602 183.204 254 188C254.857 192.37 254.369 195.262 252.375 199.25C249.381 202.717 246.692 205.472 242.047 206.383C236.95 206.675 233.926 205.391 230 202C226.609 198.074 225.325 195.05 225.617 189.953C226.528 185.308 229.283 182.619 232.75 179.625C236.738 177.631 239.63 177.143 244 178Z" fill="#090806"/>
<path d="M164 178C168.797 180.398 171.602 183.204 174 188C174.857 192.37 174.369 195.262 172.375 199.25C169.381 202.717 166.692 205.472 162.047 206.383C156.95 206.675 153.926 205.391 150 202C146.609 198.074 145.325 195.05 145.617 189.953C146.528 185.308 149.283 182.619 152.75 179.625C156.738 177.631 159.63 177.143 164 178Z" fill="#090806"/>
<path d="M224 303C224 312.24 224 321.48 224 331C220.137 329.455 217.368 328.084 213.973 325.84C213.021 325.215 212.07 324.59 211.09 323.946C210.091 323.283 209.092 322.62 208.062 321.938C206 320.579 203.938 319.221 201.875 317.863C200.873 317.203 199.872 316.542 198.84 315.862C194.014 312.698 189.135 309.617 184.254 306.539C183.51 306.031 182.766 305.523 182 305C182 304.67 182 304.34 182 304C187.178 303.857 192.356 303.714 197.533 303.573C199.294 303.524 201.054 303.476 202.815 303.427C205.349 303.357 207.884 303.288 210.418 303.219C211.201 303.197 211.985 303.175 212.792 303.152C216.531 303.051 220.259 303 224 303Z" fill="#F4CAA0"/>
<path d="M233 102C233.495 102.99 233.495 102.99 234 104C225.619 115.819 216.141 124.288 201.537 127.658C195.413 128.484 189.167 128.199 183 128.125C181.543 128.115 180.086 128.106 178.629 128.098C175.086 128.076 171.543 128.041 168 128C168 125.36 168 122.72 168 120C168.907 119.985 169.813 119.971 170.747 119.956C174.169 119.894 177.591 119.82 181.013 119.738C182.483 119.705 183.953 119.677 185.423 119.654C204.001 119.356 219.438 115.481 233 102Z" fill="#3C1F11"/>
<path d="M296 168C304.168 168.573 309.283 170.882 314.812 176.938C319.907 182.801 320.279 187.827 320.125 195.312C320.116 196.148 320.107 196.984 320.098 197.846C320.074 199.897 320.038 201.949 320 204C319.67 204 319.34 204 319 204C318.691 202.329 318.691 202.329 318.375 200.625C316.157 191.998 311.835 185.749 304.191 181.184C301.483 179.721 298.795 178.29 296 177C296 174.03 296 171.06 296 168Z" fill="#838383"/>
<path d="M329 102C329.495 102.99 329.495 102.99 330 104C321.777 115.596 312.739 123.31 298.875 127.438C293.566 128.208 288.354 128.161 283 128C283.953 126.684 284.913 125.372 285.875 124.062C286.409 123.332 286.942 122.601 287.492 121.848C289 120 289 120 291 119C292.436 118.895 293.874 118.816 295.312 118.75C308.5 117.511 319.266 110.486 329 102Z" fill="#3B1F11"/>
<path d="M281 102C281.495 102.99 281.495 102.99 282 104C273.777 115.596 264.739 123.31 250.875 127.438C245.566 128.208 240.354 128.161 235 128C235.953 126.684 236.913 125.372 237.875 124.062C238.409 123.332 238.942 122.601 239.492 121.848C241.186 119.773 242.156 119.098 244.812 118.789C245.534 118.735 246.256 118.681 247 118.625C260.315 117.2 271.439 111.26 281 102Z" fill="#4B2716"/>
<path d="M80 459C80.33 459 80.66 459 81 459C81 460.65 81 462.3 81 464C84.465 463.505 84.465 463.505 88 463C88 468.61 88 474.22 88 480C85.36 480 82.72 480 80 480C80 473.07 80 466.14 80 459Z" fill="#FADEB8"/>
</svg>
