<svg width="52" height="52" viewBox="0 0 52 52" fill="none" xmlns="http://www.w3.org/2000/svg">
<g clip-path="url(#clip0_16_31)">
<mask id="mask0_16_31" style="mask-type:luminance" maskUnits="userSpaceOnUse" x="0" y="0" width="52" height="52">
<path d="M52 0H0V52H52V0Z" fill="white"/>
</mask>
<g mask="url(#mask0_16_31)">
<path d="M17.8863 -0.0146582C18.0812 -0.0149632 18.2762 -0.0153091 18.4712 -0.0156919C18.9946 -0.0165787 19.5181 -0.0168267 20.0415 -0.0168919C20.3706 -0.0169648 20.6998 -0.0171828 21.0289 -0.0174502C22.1832 -0.0183867 23.3375 -0.018805 24.4918 -0.0187247C25.5578 -0.0186639 26.6238 -0.0197323 27.6898 -0.0213393C28.6129 -0.02268 29.5361 -0.0232116 30.4593 -0.0231472C31.0071 -0.0231216 31.5549 -0.0233911 32.1027 -0.0244856C44.2224 -0.0469744 44.2224 -0.0469744 47.938 3.14853C48.0368 3.22708 48.1357 3.30564 48.2375 3.38657C50.9899 5.68391 51.5112 9.71945 51.8366 13.0449C51.9756 14.6576 52.0157 16.2695 52.0152 17.8875C52.0155 18.0826 52.0159 18.2778 52.0163 18.4729C52.0172 18.9968 52.0174 19.5206 52.0175 20.0445C52.0175 20.3738 52.0178 20.7031 52.018 21.0325C52.019 22.1873 52.0194 23.3421 52.0193 24.497C52.0192 25.5638 52.0203 26.6306 52.0219 27.6974C52.0233 28.6211 52.0238 29.5448 52.0237 30.4684C52.0237 31.0166 52.024 31.5648 52.0251 32.113C52.0474 44.1758 52.0474 44.1758 48.852 47.9376C48.734 48.0863 48.734 48.0863 48.6136 48.2379C46.3151 50.9893 42.2815 51.5108 38.9556 51.8362C37.343 51.9752 35.7311 52.0154 34.1131 52.0148C33.9179 52.0152 33.7228 52.0155 33.5276 52.0159C33.0038 52.0168 32.48 52.017 31.9561 52.0171C31.6268 52.0172 31.2974 52.0174 30.9681 52.0176C29.8133 52.0186 28.6584 52.019 27.5036 52.0189C26.4368 52.0189 25.37 52.0199 24.3032 52.0215C23.3795 52.0229 22.4558 52.0234 21.5321 52.0233C20.9839 52.0233 20.4358 52.0236 19.8876 52.0247C7.82477 52.047 7.82477 52.047 4.06298 48.8517C3.96387 48.773 3.86476 48.6943 3.76265 48.6132C1.00826 46.3121 0.489134 42.2744 0.164326 38.9453C0.027617 37.3666 -0.0147749 35.7912 -0.0142765 34.2071C-0.0145814 34.01 -0.0149272 33.8129 -0.0153102 33.6157C-0.0161978 33.086 -0.0164445 32.5563 -0.0165096 32.0266C-0.0165824 31.6936 -0.0168015 31.3607 -0.0170691 31.0277C-0.0180058 29.8603 -0.0184233 28.693 -0.018343 27.5256C-0.0182822 26.447 -0.0193504 25.3684 -0.0209573 24.2898C-0.0222974 23.3562 -0.0228303 22.4226 -0.0227659 21.489C-0.0227403 20.9348 -0.0230099 20.3805 -0.0241033 19.8263C-0.0460951 7.82397 -0.0460956 7.82397 3.14891 4.06259C3.26694 3.91393 3.26694 3.91393 3.38735 3.76227C5.6859 1.01091 9.71941 0.489365 13.0453 0.163944C14.6574 0.0250041 16.2688 -0.0151741 17.8863 -0.0146582Z" fill="#131010"/>
<path d="M10.7525 16.1896C10.8584 16.1896 10.9643 16.1896 11.0734 16.1896C11.2968 16.1901 11.5201 16.1919 11.7434 16.1948C12.0844 16.1991 12.4253 16.199 12.7663 16.1983C12.9837 16.1994 13.2011 16.2007 13.4185 16.2023C13.5201 16.2023 13.6217 16.2023 13.7264 16.2023C14.267 16.2115 14.6741 16.2366 15.1324 16.5546C15.4445 16.8833 15.6218 17.2076 15.7878 17.6269C15.8307 17.734 15.8736 17.8411 15.9177 17.9514C15.9815 18.1146 15.9815 18.1146 16.0465 18.2811C16.0863 18.382 16.1262 18.4828 16.1673 18.5867C16.247 18.7886 16.3264 18.9907 16.4056 19.1928C17.4011 21.7235 18.5513 24.3047 20.3121 26.4061C20.3829 26.4922 20.4538 26.5782 20.5267 26.6668C21.1173 27.4012 21.1173 27.4012 21.9522 27.7499C22.1504 27.7516 22.3487 27.7401 22.5465 27.7264C22.6418 27.3219 22.6626 26.9428 22.666 26.5277C22.667 26.4265 22.667 26.4265 22.668 26.3233C22.67 26.1011 22.6712 25.8789 22.6722 25.6567C22.6727 25.5803 22.6731 25.5038 22.6735 25.4251C22.6756 25.02 22.6771 24.6149 22.678 24.2098C22.6791 23.7945 22.6826 23.3792 22.6867 22.9639C22.6893 22.6419 22.6902 22.32 22.6905 21.998C22.691 21.8451 22.6922 21.6921 22.6941 21.5392C22.7087 20.2824 22.5515 19.2104 21.7657 18.1986C21.416 17.7471 21.2467 17.4375 21.2262 16.8593C21.4056 16.5747 21.534 16.4007 21.8355 16.2499C22.0454 16.239 22.2557 16.2348 22.4659 16.2335C22.5984 16.2325 22.731 16.2316 22.8675 16.2306C23.013 16.2301 23.1584 16.2296 23.3038 16.2293C23.4526 16.2287 23.6014 16.2281 23.7502 16.2275C24.0624 16.2264 24.3746 16.2258 24.6869 16.2255C25.0864 16.2249 25.486 16.2225 25.8855 16.2196C26.193 16.2177 26.5005 16.2172 26.808 16.217C26.9553 16.2167 27.1025 16.2159 27.2498 16.2146C27.4562 16.2128 27.6625 16.2132 27.8689 16.2137C27.9863 16.2133 28.1036 16.2129 28.2245 16.2126C28.5798 16.2548 28.7655 16.3352 29.0465 16.5546C29.3287 16.9189 29.28 17.3614 29.2804 17.8023C29.2812 17.8869 29.2821 17.9715 29.283 18.0586C29.2856 18.3381 29.2868 18.6174 29.2881 18.8969C29.2897 19.0911 29.2915 19.2854 29.2933 19.4797C29.298 19.9911 29.3015 20.5025 29.3047 21.014C29.31 21.8326 29.3166 22.6512 29.3238 23.4698C29.3261 23.7558 29.3278 24.0419 29.3294 24.3279C29.3307 24.5032 29.3321 24.6785 29.3335 24.8537C29.3339 24.9731 29.3339 24.9731 29.3343 25.0949C29.3377 25.4474 29.3585 25.7622 29.4527 26.1014C30.0799 26.1447 30.3697 26.1034 30.8746 25.6952C30.9814 25.6156 31.0883 25.536 31.1983 25.454C33.0067 23.8647 34.3174 21.3259 35.3319 19.1889C35.3655 19.1181 35.3991 19.0474 35.4338 18.9746C35.6008 18.6225 35.7655 18.2697 35.9272 17.9152C35.9883 17.7843 36.0495 17.6534 36.1106 17.5226C36.1635 17.4069 36.2164 17.2913 36.2709 17.1721C36.546 16.7183 36.8607 16.4212 37.3746 16.2499C37.5349 16.2386 37.6957 16.2327 37.8564 16.2303C37.954 16.2287 38.0516 16.227 38.1523 16.2254C38.5983 16.2208 39.0443 16.2167 39.4903 16.2143C39.7255 16.2126 39.9606 16.2099 40.1957 16.206C40.5351 16.2004 40.8743 16.1982 41.2137 16.1967C41.3709 16.1933 41.3709 16.1933 41.5312 16.1897C42.3468 16.1921 42.3468 16.1921 42.7237 16.4824C42.9605 16.7577 42.9605 16.7577 43.0129 17.1536C42.815 19.5861 40.6183 22.252 39.2755 24.1943C39.0671 24.496 38.8603 24.7987 38.6535 25.1014C38.5005 25.3236 38.3451 25.5439 38.1895 25.7644C38.0946 25.9028 37.9997 26.0414 37.905 26.18C37.8601 26.242 37.8153 26.3041 37.769 26.368C37.5406 26.7083 37.448 26.9502 37.4912 27.3518C37.5747 27.7135 37.6308 27.8651 37.8888 28.12C38.1871 28.4219 38.1871 28.4219 38.1871 28.6405C38.242 28.6622 38.2968 28.684 38.3533 28.7064C38.6797 28.893 38.9234 29.148 39.1837 29.4149C39.2381 29.4702 39.2926 29.5255 39.3487 29.5824C39.7572 29.9996 40.1458 30.4292 40.523 30.8749C40.6156 30.9814 40.7083 31.0879 40.8011 31.1943C43.7712 34.6082 43.7712 34.6082 43.6715 36.0546C43.5289 36.4237 43.4144 36.5365 43.0655 36.7263C42.5829 36.9219 42.1074 36.9127 41.593 36.9111C41.4923 36.9116 41.3915 36.9122 41.2877 36.9127C41.0754 36.9134 40.8631 36.9132 40.6508 36.9124C40.3276 36.9115 40.0046 36.9144 39.6814 36.9177C39.4744 36.9178 39.2673 36.9178 39.0603 36.9175C38.9645 36.9186 38.8688 36.9197 38.7701 36.9209C38.0375 36.9133 37.5276 36.74 36.9507 36.2878C36.8956 36.2312 36.8406 36.1747 36.7839 36.1165C36.721 36.0527 36.6581 35.9889 36.5932 35.9233C36.4993 35.8249 36.4993 35.8249 36.4034 35.7245C36.3404 35.6605 36.2773 35.5965 36.2124 35.5305C35.8988 35.2093 35.5964 34.8811 35.3029 34.5415C34.2031 33.2734 33.0165 32.0682 31.5855 31.1796C31.5101 31.13 31.4347 31.0803 31.357 31.0292C30.8408 30.7242 30.2431 30.6443 29.6559 30.7733C29.3835 31.0644 29.3132 31.2611 29.3137 31.6558C29.313 31.7497 29.3123 31.8436 29.3116 31.9404C29.3125 32.0914 29.3125 32.0914 29.3135 32.2456C29.3117 32.4595 29.3099 32.6734 29.3081 32.8873C29.3071 33.2241 29.3067 33.5608 29.3069 33.8976C29.3065 34.2229 29.3038 34.5482 29.3008 34.8735C29.3016 34.974 29.3024 35.0745 29.3033 35.1781C29.2986 35.617 29.293 35.8803 29.0646 36.2631C28.3653 36.888 27.4755 36.8207 26.5899 36.8163C26.5227 36.8161 26.4554 36.8159 26.3861 36.8156C22.6739 36.7915 19.4983 34.8923 16.9054 32.3469C16.5186 31.9505 16.182 31.5153 15.8434 31.078C15.7851 31.007 15.7269 30.9361 15.6669 30.8629C15.1212 30.1953 14.6308 29.4988 14.1549 28.7802C14.1155 28.7209 14.0761 28.6616 14.0356 28.6006C9.14061 21.2148 9.14061 21.2148 8.99423 17.4179C8.98808 17.3058 8.98193 17.1937 8.97559 17.0783C9.04648 16.718 9.16008 16.5802 9.44644 16.3557C9.85499 16.1412 10.3014 16.1822 10.7525 16.1896Z" fill="#87EDFF"/>
</g>
</g>
<defs>
<clipPath id="clip0_16_31">
<rect width="52" height="52" fill="white"/>
</clipPath>
</defs>
</svg>
